<?xml version="1.0" encoding="UTF-8" standalone="no"?>
<svg
   xmlns:dc="http://purl.org/dc/elements/1.1/"
   xmlns:cc="http://creativecommons.org/ns#"
   xmlns:rdf="http://www.w3.org/1999/02/22-rdf-syntax-ns#"
   xmlns:svg="http://www.w3.org/2000/svg"
   xmlns="http://www.w3.org/2000/svg"
   xmlns:sodipodi="http://sodipodi.sourceforge.net/DTD/sodipodi-0.dtd"
   xmlns:inkscape="http://www.inkscape.org/namespaces/inkscape"
   version="1.1"
   id="Capa_1"
   x="0px"
   y="0px"
   viewBox="0 0 314.154 314.154"
   style="enable-background:new 0 0 314.154 314.154;"
   xml:space="preserve"
   sodipodi:docname="refresh.svg"
   inkscape:version="1.0.1 (3bc2e813f5, 2020-09-07)"><metadata
   id="metadata39"><rdf:RDF><cc:Work
       rdf:about=""><dc:format>image/svg+xml</dc:format><dc:type
         rdf:resource="http://purl.org/dc/dcmitype/StillImage" /></cc:Work></rdf:RDF></metadata><defs
   id="defs37" /><sodipodi:namedview
   pagecolor="#ffffff"
   bordercolor="#666666"
   borderopacity="1"
   objecttolerance="10"
   gridtolerance="10"
   guidetolerance="10"
   inkscape:pageopacity="0"
   inkscape:pageshadow="2"
   inkscape:window-width="1352"
   inkscape:window-height="727"
   id="namedview35"
   showgrid="false"
   inkscape:zoom="0.81128013"
   inkscape:cx="54.312689"
   inkscape:cy="160.33413"
   inkscape:window-x="4"
   inkscape:window-y="31"
   inkscape:window-maximized="0"
   inkscape:current-layer="Capa_1" />
<path
   d="M307.475,141.686c-6.893-4.598-16.207-2.736-20.802,4.157l-0.446,0.669c-5.426-74.107-67.45-132.745-142.918-132.745  C64.288,13.768,0,78.056,0,157.077s64.288,143.309,143.309,143.309c11.046,0,20-8.954,20-20s-8.954-20-20-20  C86.344,260.385,40,214.041,40,157.077S86.344,53.768,143.309,53.768c52.798,0,96.465,39.815,102.571,90.996  c-4.813-5.991-13.486-7.422-20-3.078c-6.893,4.596-8.754,13.91-4.158,20.802l29.702,44.541c3.505,5.256,9.208,8.394,15.255,8.394  c6.047,0,11.749-3.139,15.252-8.394l29.702-44.541C316.228,155.595,314.367,146.282,307.475,141.686z"
   id="path2"
   style="fill:#7e36f4" />
<g
   id="g4">
</g>
<g
   id="g6">
</g>
<g
   id="g8">
</g>
<g
   id="g10">
</g>
<g
   id="g12">
</g>
<g
   id="g14">
</g>
<g
   id="g16">
</g>
<g
   id="g18">
</g>
<g
   id="g20">
</g>
<g
   id="g22">
</g>
<g
   id="g24">
</g>
<g
   id="g26">
</g>
<g
   id="g28">
</g>
<g
   id="g30">
</g>
<g
   id="g32">
</g>
</svg>
