<?xml version="1.0" encoding="UTF-8" standalone="no"?>
<svg
   xmlns:dc="http://purl.org/dc/elements/1.1/"
   xmlns:cc="http://creativecommons.org/ns#"
   xmlns:rdf="http://www.w3.org/1999/02/22-rdf-syntax-ns#"
   xmlns:svg="http://www.w3.org/2000/svg"
   xmlns="http://www.w3.org/2000/svg"
   xmlns:xlink="http://www.w3.org/1999/xlink"
   xmlns:sodipodi="http://sodipodi.sourceforge.net/DTD/sodipodi-0.dtd"
   xmlns:inkscape="http://www.inkscape.org/namespaces/inkscape"
   height="480pt"
   viewBox="0 0 480 480"
   width="480pt"
   version="1.1"
   id="svg95"
   sodipodi:docname="favicon.svg"
   inkscape:version="1.0.1 (3bc2e813f5, 2020-09-07)">
  <metadata
     id="metadata101">
    <rdf:RDF>
      <cc:Work
         rdf:about="">
        <dc:format>image/svg+xml</dc:format>
        <dc:type
           rdf:resource="http://purl.org/dc/dcmitype/StillImage" />
      </cc:Work>
    </rdf:RDF>
  </metadata>
  <defs
     id="defs99" />
  <sodipodi:namedview
     pagecolor="#ffffff"
     bordercolor="#666666"
     borderopacity="1"
     objecttolerance="10"
     gridtolerance="10"
     guidetolerance="10"
     inkscape:pageopacity="0"
     inkscape:pageshadow="2"
     inkscape:window-width="1352"
     inkscape:window-height="727"
     id="namedview97"
     showgrid="false"
     inkscape:zoom="0.57817993"
     inkscape:cx="259.374"
     inkscape:cy="290.83885"
     inkscape:window-x="4"
     inkscape:window-y="31"
     inkscape:window-maximized="0"
     inkscape:current-layer="svg95" />
  <linearGradient
     id="a">
    <stop
       offset="0"
       stop-color="#4761ac"
       id="stop2" />
    <stop
       offset="1"
       stop-color="#54c2ef"
       id="stop4" />
  </linearGradient>
  <linearGradient
     id="b"
     gradientUnits="userSpaceOnUse"
     x1="-8"
     x2="480"
     xlink:href="#a"
     y1="392"
     y2="392" />
  <linearGradient
     id="c"
     gradientUnits="userSpaceOnUse"
     x1="-8"
     x2="480"
     xlink:href="#a"
     y1="88"
     y2="88" />
  <linearGradient
     id="d"
     gradientUnits="userSpaceOnUse"
     x1="-8"
     x2="480"
     xlink:href="#a"
     y1="40"
     y2="40" />
  <linearGradient
     id="e"
     gradientUnits="userSpaceOnUse"
     x1="-8"
     x2="480"
     xlink:href="#a"
     y1="72"
     y2="72" />
  <linearGradient
     id="f"
     gradientUnits="userSpaceOnUse"
     x1="-8"
     x2="480"
     xlink:href="#a"
     y1="104"
     y2="104" />
  <linearGradient
     id="g"
     gradientUnits="userSpaceOnUse"
     x1="-8"
     x2="480"
     xlink:href="#a"
     y1="136"
     y2="136" />
  <linearGradient
     id="h"
     gradientUnits="userSpaceOnUse"
     x1="-8"
     x2="480"
     xlink:href="#a"
     y1="376"
     y2="376" />
  <linearGradient
     id="i"
     gradientUnits="userSpaceOnUse"
     x1="-8"
     x2="480"
     xlink:href="#a"
     y1="408"
     y2="408" />
  <linearGradient
     id="j"
     gradientUnits="userSpaceOnUse"
     x1="-8"
     x2="480"
     xlink:href="#a"
     y1="240"
     y2="240" />
  <linearGradient
     id="k"
     gradientUnits="userSpaceOnUse"
     x1="-8"
     x2="480"
     xlink:href="#a"
     y1="304"
     y2="304" />
  <linearGradient
     id="l"
     gradientUnits="userSpaceOnUse"
     x1="-8"
     x2="480"
     xlink:href="#a"
     y1="352"
     y2="352" />
  <linearGradient
     id="m"
     gradientUnits="userSpaceOnUse"
     x1="-8"
     x2="480"
     xlink:href="#a"
     y1="400"
     y2="400" />
  <linearGradient
     id="n"
     gradientUnits="userSpaceOnUse"
     x1="-8"
     x2="480"
     xlink:href="#a"
     y1="176"
     y2="176" />
  <linearGradient
     id="o"
     gradientUnits="userSpaceOnUse"
     x1="-8"
     x2="480"
     xlink:href="#a"
     y1="128"
     y2="128" />
  <linearGradient
     id="p"
     gradientUnits="userSpaceOnUse"
     x1="-8"
     x2="480"
     xlink:href="#a"
     y1="80"
     y2="80" />
  <linearGradient
     id="q"
     gradientUnits="userSpaceOnUse"
     x1="-8"
     x2="480"
     xlink:href="#a"
     y1="168"
     y2="168" />
  <linearGradient
     id="r"
     gradientUnits="userSpaceOnUse"
     x1="-8"
     x2="480"
     xlink:href="#a"
     y1="312"
     y2="312" />
  <linearGradient
     id="s"
     gradientUnits="userSpaceOnUse"
     x1="-8"
     x2="480"
     xlink:href="#a"
     y1="472"
     y2="472" />
  <linearGradient
     id="t"
     gradientUnits="userSpaceOnUse"
     x1="-7.994582"
     x2="480.005418"
     xlink:href="#a"
     y1="336.002244"
     y2="336.002244" />
  <linearGradient
     id="u"
     gradientUnits="userSpaceOnUse"
     x1="-7.99868"
     x2="480.00132"
     xlink:href="#a"
     y1="335.992628"
     y2="335.992628" />
  <linearGradient
     id="v"
     gradientUnits="userSpaceOnUse"
     x1="-7.99472"
     x2="480.00528"
     xlink:href="#a"
     y1="448.002187"
     y2="448.002187" />
  <linearGradient
     id="w"
     gradientUnits="userSpaceOnUse"
     x1="-8.004279"
     x2="479.995721"
     xlink:href="#a"
     y1="448.006147"
     y2="448.006147" />
  <path
     d="m440 400c3.234375 0 6.152344-1.949219 7.390625-4.9375s.550781-6.429688-1.734375-8.71875l-48-48c-3.125-3.121094-8.1875-3.121094-11.3125 0l-48 48c-2.285156 2.289062-2.972656 5.730469-1.734375 8.71875s4.15625 4.9375 7.390625 4.9375h8v40c0 4.417969 3.582031 8 8 8h64c4.417969 0 8-3.582031 8-8v-40zm-48-44.6875 28.6875 28.6875h-57.375zm24 76.6875h-16v-8c0-4.417969-3.582031-8-8-8s-8 3.582031-8 8v8h-16v-32h48zm0 0"
     fill="url(#b)"
     id="path29"
     style="fill:#4169e1" />
  <path
     d="m168 176c4.417969 0 8-3.582031 8-8v-160c0-4.417969-3.582031-8-8-8h-96c-4.417969 0-8 3.582031-8 8v160c0 4.417969 3.582031 8 8 8zm-88-160h80v144h-80zm0 0"
     fill="url(#c)"
     id="path31"
     style="fill:#4169e1" />
  <path
     d="m96 32h16v16h-16zm0 0"
     fill="url(#d)"
     id="path33"
     style="fill:#4169e1" />
  <path
     d="m128 32h16v16h-16zm0 0"
     fill="url(#d)"
     id="path35"
     style="fill:#4169e1" />
  <path
     d="m96 64h16v16h-16zm0 0"
     fill="url(#e)"
     id="path37"
     style="fill:#4169e1" />
  <path
     d="m128 64h16v16h-16zm0 0"
     fill="url(#e)"
     id="path39"
     style="fill:#4169e1" />
  <path
     d="m96 96h16v16h-16zm0 0"
     fill="url(#f)"
     id="path41"
     style="fill:#4169e1" />
  <path
     d="m128 96h16v16h-16zm0 0"
     fill="url(#f)"
     id="path43"
     style="fill:#4169e1" />
  <path
     d="m96 128h16v16h-16zm0 0"
     fill="url(#g)"
     id="path45"
     style="fill:#4169e1" />
  <path
     d="m128 128h16v16h-16zm0 0"
     fill="url(#g)"
     id="path47"
     style="fill:#4169e1" />
  <path
     d="m112 368h16v16h-16zm0 0"
     fill="url(#h)"
     id="path49"
     style="fill:#4169e1" />
  <path
     d="m112 400h16v16h-16zm0 0"
     fill="url(#i)"
     id="path51"
     style="fill:#4169e1" />
  <g
     fill="url(#j)"
     id="g59"
     style="fill:#4169e1">
    <path
       d="m64 232h32v16h-32zm0 0"
       id="path53"
       style="fill:#4169e1" />
    <path
       d="m112 232h32v16h-32zm0 0"
       id="path55"
       style="fill:#4169e1" />
    <path
       d="m160 232h32v16h-32zm0 0"
       id="path57"
       style="fill:#4169e1" />
  </g>
  <path
     d="m232 288h16v32h-16zm0 0"
     fill="url(#k)"
     id="path61"
     style="fill:#4169e1" />
  <path
     d="m232 336h16v32h-16zm0 0"
     fill="url(#l)"
     id="path63"
     style="fill:#4169e1" />
  <path
     d="m232 384h16v32h-16zm0 0"
     fill="url(#m)"
     id="path65"
     style="fill:#4169e1" />
  <path
     d="m232 160h16v32h-16zm0 0"
     fill="url(#n)"
     id="path67"
     style="fill:#4169e1" />
  <path
     d="m232 112h16v32h-16zm0 0"
     fill="url(#o)"
     id="path69"
     style="fill:#4169e1" />
  <path
     d="m232 64h16v32h-16zm0 0"
     fill="url(#p)"
     id="path71"
     style="fill:#4169e1" />
  <path
     d="m392 208c22.089844 0 40-17.910156 40-40s-17.910156-40-40-40-40 17.910156-40 40c.027344 22.082031 17.917969 39.972656 40 40zm0-64c13.253906 0 24 10.746094 24 24s-10.746094 24-24 24-24-10.746094-24-24 10.746094-24 24-24zm0 0"
     fill="url(#q)"
     id="path73"
     style="fill:#4169e1" />
  <path
     d="m384 304h16v16h-16zm0 0"
     fill="url(#r)"
     id="path75"
     style="fill:#4169e1" />
  <path
     d="m304 384h16v16h-16zm0 0"
     fill="url(#b)"
     id="path77"
     style="fill:#4169e1" />
  <path
     d="m464 384h16v16h-16zm0 0"
     fill="url(#b)"
     id="path79"
     style="fill:#4169e1" />
  <path
     d="m384 464h16v16h-16zm0 0"
     fill="url(#s)"
     id="path81"
     style="fill:#4169e1" />
  <path
     d="m322.347656 333.65625 11.3125-11.3125 16 16-11.316406 11.3125zm0 0"
     fill="url(#t)"
     id="path83"
     style="fill:#4169e1" />
  <path
     d="m434.34375 338.339844 15.996094-16 11.316406 11.3125-16 16zm0 0"
     fill="url(#u)"
     id="path85"
     style="fill:#4169e1" />
  <path
     d="m434.347656 445.65625 11.3125-11.3125 16 16-11.316406 11.3125zm0 0"
     fill="url(#v)"
     id="path87"
     style="fill:#4169e1" />
  <path
     d="m322.34375 450.347656 15.996094-16 11.316406 11.3125-16 16zm0 0"
     fill="url(#w)"
     id="path89"
     style="fill:#4169e1" />
  <path
     d="m168 432h-8v-88c0-4.417969-3.582031-8-8-8h-24v-24c0-4.417969-3.582031-8-8-8s-8 3.582031-8 8v24h-24c-4.417969 0-8 3.582031-8 8v88h-8c-4.417969 0-8 3.582031-8 8v32c0 4.417969 3.582031 8 8 8h96c4.417969 0 8-3.582031 8-8v-32c0-4.417969-3.582031-8-8-8zm-72-80h48v80h-48zm64 112h-80v-16h80zm0 0"
     fill="url(#b)"
     id="path91"
     style="fill:#4169e1" />
  <path
     d="m472 192h-10.921875c.449219-2.078125.859375-4.089844 1.167969-5.921875.859375-4.011719 1.394531-8.085937 1.601562-12.183594.167969-2.398437.183594-3.789062.183594-3.894531-.027344-39.765625-32.285156-71.976562-72.050781-71.949219-39.765625.03125-71.976563 32.289063-71.949219 72.054688 0 0 0 1.421875.175781 3.710937.183594 4.011719.691407 8.003906 1.511719 11.9375.335938 1.925782.761719 4.046875 1.242188 6.246094h-34.960938v-184c0-4.417969-3.582031-8-8-8h-80c-4.417969 0-8 3.582031-8 8v184h-184c-4.417969 0-8 3.582031-8 8v80c0 4.417969 3.582031 8 8 8h184v184c0 4.417969 3.582031 8 8 8h80c4.417969 0 8-3.582031 8-8v-184h184c4.417969 0 8-3.582031 8-8v-80c0-4.417969-3.582031-8-8-8zm-80-80c31.421875.582031 56.460938 26.464844 56 57.886719 0 .113281 0 1.191406-.152344 2.960937v.167969c-.15625 3.367187-.589844 6.71875-1.296875 10.015625-6.21875 35.011719-25.773437 66.246094-54.550781 87.136719-28.851562-20.976563-48.429688-52.332031-54.609375-87.464844-.679687-3.246094-1.097656-6.542969-1.238281-9.855469-.152344-1.769531-.152344-2.847656-.152344-2.847656-.507812-31.464844 24.539062-57.40625 56-58zm-112 160c-4.417969 0-8 3.582031-8 8v184h-24v-32h-16v32h-24v-184c0-4.417969-3.582031-8-8-8h-184v-24h32v-16h-32v-24h184c4.417969 0 8-3.582031 8-8v-184h24v32h16v-32h24v184c0 4.417969 3.582031 8 8 8h47.375c8.292969 24.53125 22.679688 46.554688 41.816406 64zm184 0h-49.191406c19.140625-17.445312 33.539062-39.464844 41.839844-64h7.351562zm0 0"
     fill="url(#j)"
     id="path93"
     style="fill:#4169e1" />
</svg>
